<?xml version="1.0" encoding="UTF-8"?>
<svg version="1.1" xmlns="http://www.w3.org/2000/svg" width="225" height="225">
<path d="M0 0 C74.25 0 148.5 0 225 0 C225 74.25 225 148.5 225 225 C150.75 225 76.5 225 0 225 C0 150.75 0 76.5 0 0 Z " fill="#FEFEFE" transform="translate(0,0)"/>
<path d="M0 0 C-0.21991999 7.20737771 -3.76270501 12.02685122 -7.625 17.9375 C-9.00419114 20.09486998 -10.38308941 22.25242722 -11.76171875 24.41015625 C-12.4686084 25.50730957 -13.17549805 26.60446289 -13.90380859 27.73486328 C-17.12603443 32.75396978 -20.28209355 37.81371963 -23.4375 42.875 C-24.04456787 43.84614746 -24.65163574 44.81729492 -25.27709961 45.81787109 C-30.10737179 53.54959721 -34.90487175 61.30124994 -39.6875 69.0625 C-40.359021 70.15095215 -41.03054199 71.2394043 -41.72241211 72.36083984 C-42.3541333 73.38773926 -42.98585449 74.41463867 -43.63671875 75.47265625 C-44.19061279 76.37250244 -44.74450684 77.27234863 -45.31518555 78.19946289 C-47.26341923 81.43786146 -49.13504218 84.71298323 -51 88 C-50.19233688 87.99555878 -49.38467377 87.99111755 -48.55253601 87.98654175 C-40.94523085 87.94648623 -33.33797674 87.91602643 -25.73059368 87.89637566 C-21.81945488 87.88593343 -17.90840314 87.87176628 -13.99731445 87.84912109 C-10.22368831 87.82740827 -6.45014596 87.81543468 -2.67646217 87.81024551 C-1.23593641 87.80654694 0.20458471 87.79932464 1.64507484 87.78853989 C3.66088014 87.77404653 5.67676956 87.77318326 7.69262695 87.77294922 C9.41471123 87.76628738 9.41471123 87.76628738 11.17158508 87.75949097 C14 88 14 88 17 90 C16.55712653 94.89972715 15.51884034 97.08959179 11.9375 100.4375 C10.70386719 101.60152344 10.70386719 101.60152344 9.4453125 102.7890625 C8.63835937 103.51867187 7.83140625 104.24828125 7 105 C6.37867188 105.56460938 5.75734375 106.12921875 5.1171875 106.7109375 C3.10010636 108.50098787 1.05409417 110.25248705 -1 112 C-3.29295018 113.95683354 -5.58415998 115.9156968 -7.875 117.875 C-8.4834375 118.39465332 -9.091875 118.91430664 -9.71875 119.44970703 C-13.25624519 122.47873463 -16.74387845 125.55144274 -20.1875 128.6875 C-23.52227114 131.71712868 -26.93287639 134.60608092 -30.4375 137.4375 C-34.24087503 140.51336588 -37.90082652 143.68753166 -41.5 147 C-45.87170463 151.01974536 -50.37786886 154.79988195 -54.99609375 158.53125 C-58.48716179 161.40037224 -61.90378232 164.34644461 -65.3125 167.3125 C-65.94607422 167.86365479 -66.57964844 168.41480957 -67.23242188 168.98266602 C-68.51848455 170.10178159 -69.80445448 171.22100376 -71.09033203 172.34033203 C-78.99244765 179.20795949 -86.94996984 185.98749401 -95.08203125 192.58203125 C-98.64886498 195.53768062 -102.13530274 198.57907677 -105.625 201.625 C-114.69735131 209.50008345 -114.69735131 209.50008345 -118.1875 212.375 C-118.84105469 212.91898438 -119.49460937 213.46296875 -120.16796875 214.0234375 C-122 215 -122 215 -124.23828125 214.6640625 C-124.81964844 214.44492188 -125.40101562 214.22578125 -126 214 C-125.51935851 208.54480551 -124.17398877 204.96873761 -121.34375 200.30078125 C-120.9697406 199.67665344 -120.5957312 199.05252563 -120.21038818 198.40948486 C-118.98463672 196.37025444 -117.74255576 194.34152668 -116.5 192.3125 C-115.63536734 190.8813973 -114.77177464 189.44966583 -113.90917969 188.01733398 C-111.7072342 184.3673084 -109.49173384 180.72573264 -107.27172852 177.08666992 C-105.33610657 173.91067438 -103.41039148 170.72870117 -101.484375 167.546875 C-98.83579326 163.17368449 -96.1785348 158.80588781 -93.515625 154.44140625 C-86.95317426 143.6623072 -80.48587742 132.82528365 -74 122 C-74.86221664 122.00222061 -75.72443329 122.00444122 -76.61277771 122.00672913 C-84.72106036 122.02672995 -92.82933477 122.04197306 -100.93763638 122.05181217 C-105.10662828 122.05704051 -109.27559987 122.06413726 -113.44458008 122.07543945 C-117.46457686 122.08627008 -121.48455405 122.09227721 -125.50456429 122.09487724 C-127.04162975 122.09673118 -128.57869409 122.10035119 -130.11575127 122.10573006 C-132.26135487 122.11294284 -134.40687655 122.11399084 -136.55249023 122.11352539 C-137.77604721 122.115746 -138.99960419 122.11796661 -140.26023865 122.12025452 C-143 122 -143 122 -144 121 C-144.48828125 118.828125 -144.48828125 118.828125 -144 116 C-142.00102028 113.59647429 -139.61358168 111.70893531 -137.1875 109.75 C-136.50115479 109.17644775 -135.81480957 108.60289551 -135.10766602 108.01196289 C-133.0836662 106.32620182 -131.04464192 104.66062551 -129 103 C-128.02546875 102.19949219 -127.0509375 101.39898437 -126.046875 100.57421875 C-124.3046645 99.14758829 -122.5585461 97.72571713 -120.80859375 96.30859375 C-117.49700923 93.58655418 -114.24702956 90.79842392 -111 88 C-104.48595435 82.39197417 -97.86319263 76.93308095 -91.1796875 71.52783203 C-83.58524069 65.38381866 -76.02014697 59.21671094 -68.58251953 52.88330078 C-64.37364163 49.30241834 -60.10258833 45.80399837 -55.81640625 42.31640625 C-52.66214553 39.72212524 -49.54806173 37.08383258 -46.4375 34.4375 C-41.97336862 30.64324772 -37.45615799 26.93509487 -32.86328125 23.296875 C-29.78509551 20.82760731 -26.74052157 18.32055011 -23.69897461 15.80639648 C-20.77597368 13.3908106 -17.84654599 10.98310265 -14.91601562 8.57666016 C-13.28855236 7.23744535 -11.66705995 5.89097977 -10.046875 4.54296875 C-9.26828125 3.91003906 -8.4896875 3.27710938 -7.6875 2.625 C-7.05199219 2.10164062 -6.41648438 1.57828125 -5.76171875 1.0390625 C-4 0 -4 0 0 0 Z " fill="#FEC927" transform="translate(175,6)"/>
<path d="M0 0 C0.66796875 2.2734375 0.66796875 2.2734375 1 5 C-4.44852242 14.97142713 -17.47051083 23.64868687 -26.21875 30.6875 C-29.24019336 33.19971133 -32.12440078 35.82402457 -35 38.5 C-39.61001639 42.7895776 -44.37783236 46.80410897 -49.28515625 50.75390625 C-52.10673495 53.0883059 -54.80590712 55.51990598 -57.5 58 C-61.87170463 62.01974536 -66.37786886 65.79988195 -70.99609375 69.53125 C-74.48716179 72.40037224 -77.90378232 75.34644461 -81.3125 78.3125 C-81.94607422 78.86365479 -82.57964844 79.41480957 -83.23242188 79.98266602 C-84.51848455 81.10178159 -85.80445448 82.22100376 -87.09033203 83.34033203 C-94.99244765 90.20795949 -102.94996984 96.98749401 -111.08203125 103.58203125 C-114.64886498 106.53768062 -118.13530274 109.57907677 -121.625 112.625 C-130.69735131 120.50008345 -130.69735131 120.50008345 -134.1875 123.375 C-134.84105469 123.91898437 -135.49460937 124.46296875 -136.16796875 125.0234375 C-138 126 -138 126 -140.23828125 125.6640625 C-140.81964844 125.44492188 -141.40101563 125.22578125 -142 125 C-141.75 123.125 -141.75 123.125 -141 121 C-139.67006501 120.32657953 -138.33622551 119.66085066 -137 119 C-135.32173728 117.52556263 -135.32173728 117.52556263 -133.75 115.8125 C-130.68744029 112.65890879 -127.49521425 109.75312487 -124.16796875 106.8828125 C-121.75157049 104.7842468 -119.37470976 102.645603 -117 100.5 C-113.38323655 97.23609152 -109.73610392 94.01209051 -106.0625 90.8125 C-103.69035571 88.72788836 -101.34443935 86.61571356 -99 84.5 C-95.38323655 81.23609152 -91.73610392 78.01209051 -88.0625 74.8125 C-84.82210155 71.96487712 -81.62758635 69.06663714 -78.42578125 66.17578125 C-76.36297212 64.32556437 -74.2828763 62.50055191 -72.1875 60.6875 C-66.90690906 56.08690467 -61.79953118 51.2969673 -56.66259766 46.53759766 C-52.6200454 42.79897884 -48.55394696 39.08592966 -44.49267578 35.36767578 C-42.97185124 33.97420848 -41.45252676 32.57912249 -39.93359375 31.18359375 C-34.58084788 26.26752823 -29.21142093 21.37325149 -23.77734375 16.546875 C-21.55679901 14.51059487 -19.3998308 12.44126683 -17.25390625 10.328125 C-16.59302002 9.68657471 -15.93213379 9.04502441 -15.2512207 8.3840332 C-13.93962801 7.1082825 -12.63945006 5.82066626 -11.35229492 4.52026367 C-7.61146639 0.90673171 -5.48329322 -0.86622577 0 0 Z " fill="#FEB807" transform="translate(191,95)"/>
<path d="M0 0 C-0.54308477 4.01443988 -2.48289735 5.85204839 -5.30102539 8.6574707 C-6.21610367 9.57555008 -7.13118195 10.49362946 -8.07398987 11.43952942 C-9.0816521 12.43517605 -10.08954688 13.43058736 -11.09765625 14.42578125 C-12.13139729 15.45646142 -13.16454574 16.48773624 -14.1971283 17.51957703 C-16.36574529 19.68359028 -18.53917652 21.84260352 -20.71655273 23.99780273 C-23.48803572 26.74118065 -26.25093732 29.49299279 -29.01064396 32.24821186 C-31.66151624 34.89388523 -34.31703117 37.5348802 -36.97265625 40.17578125 C-37.47025011 40.67149439 -37.96784397 41.16720753 -38.48051643 41.67794228 C-43.62483633 46.797187 -48.78963866 51.83204399 -54.31877136 56.53648376 C-57.10661092 58.96330922 -59.67220097 61.60400522 -62.25 64.25 C-70.66941176 72.88529412 -70.66941176 72.88529412 -75.625 73.3125 C-79 73 -79 73 -81 71 C-80.63289884 64.47855589 -75.56135703 61.1025223 -71 57 C-68.39274881 54.79760148 -65.74954496 52.6494954 -63.0859375 50.515625 C-59.49002622 47.58427454 -55.99373684 44.55168654 -52.5 41.5 C-48.16229827 37.71383484 -43.79798318 33.98668776 -39.3125 30.375 C-34.87388192 26.78465115 -30.66874019 22.98181613 -26.49072266 19.09643555 C-22.29734471 15.21854898 -17.93468924 11.58726544 -13.4765625 8.015625 C-11.26923469 6.21912477 -9.16588934 4.35292689 -7.0625 2.4375 C-4 0 -4 0 0 0 Z " fill="#FFE465" transform="translate(133,43)"/>
<path d="M0 0 C0.99 0 1.98 0 3 0 C2.78008001 7.20737771 -0.76270501 12.02685122 -4.625 17.9375 C-6.00419114 20.09486998 -7.38308941 22.25242722 -8.76171875 24.41015625 C-9.4686084 25.50730957 -10.17549805 26.60446289 -10.90380859 27.73486328 C-14.12603886 32.75397668 -17.28167345 37.81397525 -20.4375 42.875 C-21.04601807 43.84687256 -21.65453613 44.81874512 -22.28149414 45.82006836 C-25.64598177 51.19876082 -28.98254618 56.59337291 -32.2890625 62.0078125 C-32.6470845 62.59319794 -33.00510651 63.17858337 -33.37397766 63.78170776 C-35.10317458 66.60916549 -36.82847945 69.4387499 -38.54663086 72.27294922 C-41.32619101 76.82353435 -44.13284339 81.35924089 -47.16015625 85.75 C-47.8099646 86.70132813 -47.8099646 86.70132813 -48.47290039 87.671875 C-50 89 -50 89 -52.46704102 89.234375 C-54.7350959 89.01361735 -56.81036658 88.62282906 -59 88 C-60 85 -60 85 -58.91796875 82.7578125 C-55.19565348 77.09451568 -51.28417348 71.65505733 -47.10717773 66.31738281 C-42.95940029 61.00417132 -39.02650303 55.54717635 -35.09692383 50.0715332 C-31.70296984 45.34704266 -28.27407005 40.65152208 -24.80859375 35.97924805 C-19.19252047 28.40712911 -13.66865377 20.77736008 -8.25 13.0625 C-7.65324463 12.21574707 -7.05648926 11.36899414 -6.44165039 10.49658203 C-5.88856201 9.70493652 -5.33547363 8.91329102 -4.765625 8.09765625 C-4.27868164 7.40164307 -3.79173828 6.70562988 -3.29003906 5.98852539 C-2.03109622 4.04793313 -0.99054574 2.08839085 0 0 Z " fill="#FEB806" transform="translate(172,6)"/>
<path d="M0 0 C0.6638269 -0.00043808 1.32765381 -0.00087616 2.01159668 -0.00132751 C4.19781276 0.00075646 6.38325444 0.02406762 8.56933594 0.04760742 C10.08819154 0.0532048 11.60705257 0.05747423 13.12591553 0.06047058 C17.11762526 0.07190827 21.10900594 0.1013659 25.10058594 0.13458252 C29.17606149 0.16530677 33.25159037 0.17898093 37.32714844 0.1940918 C45.3194867 0.22623689 53.31155785 0.27741993 61.30371094 0.34057617 C62.11338532 3.25540395 62.52217087 4.80170834 61.36621094 7.65307617 C61.01558594 8.20995117 60.66496094 8.76682617 60.30371094 9.34057617 C51.19411929 9.36370162 42.08453768 9.38149229 32.97492313 9.39238834 C28.74539723 9.39761673 24.51589134 9.40471357 20.28637695 9.41601562 C16.20802551 9.42684609 12.12969337 9.43285334 8.05132866 9.43545341 C6.49193454 9.43730738 4.93254154 9.44092745 3.37315559 9.44630623 C1.19641932 9.45351879 -0.98023621 9.45456703 -3.15698242 9.45410156 C-5.01896523 9.45743248 -5.01896523 9.45743248 -6.91856384 9.46083069 C-9.69628906 9.34057617 -9.69628906 9.34057617 -10.69628906 8.34057617 C-11.00878906 5.96557617 -11.00878906 5.96557617 -10.69628906 3.34057617 C-7.4005251 -0.0411596 -4.58284126 -0.02546023 0 0 Z " fill="#FEB704" transform="translate(41.6962890625,118.659423828125)"/>
<path d="M0 0 C1.11375 0.3403125 1.11375 0.3403125 2.25 0.6875 C3.02577262 5.723217 2.25954633 8.17286795 -0.7578125 12.296875 C-2.11409161 14.02320126 -3.48759522 15.73608784 -4.875 17.4375 C-6.35435866 19.31132141 -7.83219415 21.18634624 -9.30859375 23.0625 C-10.05608887 24.00351563 -10.80358398 24.94453125 -11.57373047 25.9140625 C-14.79359746 30.01746042 -17.8675091 34.22151336 -20.9375 38.4375 C-25.5573236 44.72771982 -30.18548887 51.01150696 -34.875 57.25 C-35.40762451 57.9709082 -35.94024902 58.69181641 -36.48901367 59.43457031 C-36.99021729 60.09682617 -37.4914209 60.75908203 -38.0078125 61.44140625 C-38.65967529 62.31261108 -38.65967529 62.31261108 -39.32470703 63.20141602 C-40.96946099 64.91632135 -42.5847012 65.74361474 -44.75 66.6875 C-45.57214731 64.35910398 -45.93502903 63.15622795 -45.01245117 60.8190918 C-44.61002197 60.18140869 -44.20759277 59.54372559 -43.79296875 58.88671875 C-43.3455835 58.16556885 -42.89819824 57.44441895 -42.43725586 56.70141602 C-41.94233643 55.93369873 -41.44741699 55.16598145 -40.9375 54.375 C-40.42904541 53.56667725 -39.92059082 52.75835449 -39.39672852 51.92553711 C-35.61546359 45.94672461 -31.73690636 40.03252925 -27.76953125 34.17578125 C-25.64062113 31.02872947 -23.5449162 27.86101341 -21.46125793 24.68382263 C-19.84413096 22.21897578 -18.22140297 19.75783765 -16.59841919 17.29684448 C-15.78752247 16.06444896 -14.97895909 14.83051474 -14.17282104 13.59500122 C-13.03054168 11.8454341 -11.87951028 10.10192406 -10.7265625 8.359375 C-10.05705566 7.3394043 -9.38754883 6.31943359 -8.69775391 5.26855469 C-4.34897675 -0.4942019 -4.34897675 -0.4942019 0 0 Z " fill="#FFE465" transform="translate(118.75,120.3125)"/>
</svg>
